<mxfile host="65bd71144e">
    <diagram id="zWHLXcJhT3XU6GD_bitl" name="第 1 页">
        <mxGraphModel dx="565" dy="547" grid="1" gridSize="10" guides="1" tooltips="1" connect="1" arrows="1" fold="1" page="1" pageScale="1" pageWidth="827" pageHeight="1169" math="0" shadow="0">
            <root>
                <mxCell id="0"/>
                <mxCell id="1" parent="0"/>
                <mxCell id="16" value="function Animal()" style="swimlane;fontStyle=0;childLayout=stackLayout;horizontal=1;startSize=30;horizontalStack=0;resizeParent=1;resizeParentMax=0;resizeLast=0;collapsible=1;marginBottom=0;whiteSpace=wrap;html=1;" vertex="1" parent="1">
                    <mxGeometry x="70" y="100" width="140" height="60" as="geometry"/>
                </mxCell>
                <mxCell id="18" value="prototype" style="text;strokeColor=none;fillColor=none;align=left;verticalAlign=middle;spacingLeft=4;spacingRight=4;overflow=hidden;points=[[0,0.5],[1,0.5]];portConstraint=eastwest;rotatable=0;whiteSpace=wrap;html=1;" vertex="1" parent="16">
                    <mxGeometry y="30" width="140" height="30" as="geometry"/>
                </mxCell>
                <mxCell id="24" value="Animal默认原型对象" style="swimlane;fontStyle=0;childLayout=stackLayout;horizontal=1;startSize=30;horizontalStack=0;resizeParent=1;resizeParentMax=0;resizeLast=0;collapsible=1;marginBottom=0;whiteSpace=wrap;html=1;" vertex="1" parent="1">
                    <mxGeometry x="360" y="100" width="140" height="90" as="geometry"/>
                </mxCell>
                <mxCell id="27" value="constructor&amp;nbsp;" style="text;strokeColor=none;fillColor=none;align=left;verticalAlign=middle;spacingLeft=4;spacingRight=4;overflow=hidden;points=[[0,0.5],[1,0.5]];portConstraint=eastwest;rotatable=0;whiteSpace=wrap;html=1;" vertex="1" parent="24">
                    <mxGeometry y="30" width="140" height="30" as="geometry"/>
                </mxCell>
                <mxCell id="29" value="getColor&amp;nbsp;&lt;span style=&quot;white-space: pre;&quot;&gt;&#x9;&lt;/span&gt;&lt;span style=&quot;white-space: pre;&quot;&gt;&#x9;&lt;/span&gt;function" style="text;strokeColor=none;fillColor=none;align=left;verticalAlign=middle;spacingLeft=4;spacingRight=4;overflow=hidden;points=[[0,0.5],[1,0.5]];portConstraint=eastwest;rotatable=0;whiteSpace=wrap;html=1;" vertex="1" parent="24">
                    <mxGeometry y="60" width="140" height="30" as="geometry"/>
                </mxCell>
                <mxCell id="31" style="edgeStyle=none;html=1;entryX=-0.007;entryY=0.033;entryDx=0;entryDy=0;entryPerimeter=0;" edge="1" parent="1" source="18" target="27">
                    <mxGeometry relative="1" as="geometry"/>
                </mxCell>
                <mxCell id="32" value="function Dog()" style="swimlane;fontStyle=0;childLayout=stackLayout;horizontal=1;startSize=30;horizontalStack=0;resizeParent=1;resizeParentMax=0;resizeLast=0;collapsible=1;marginBottom=0;whiteSpace=wrap;html=1;" vertex="1" parent="1">
                    <mxGeometry x="50" y="270" width="140" height="60" as="geometry"/>
                </mxCell>
                <mxCell id="33" value="prototype" style="text;strokeColor=none;fillColor=none;align=left;verticalAlign=middle;spacingLeft=4;spacingRight=4;overflow=hidden;points=[[0,0.5],[1,0.5]];portConstraint=eastwest;rotatable=0;whiteSpace=wrap;html=1;" vertex="1" parent="32">
                    <mxGeometry y="30" width="140" height="30" as="geometry"/>
                </mxCell>
                <mxCell id="39" value="new Animal()" style="swimlane;fontStyle=0;childLayout=stackLayout;horizontal=1;startSize=50;horizontalStack=0;resizeParent=1;resizeParentMax=0;resizeLast=0;collapsible=1;marginBottom=0;whiteSpace=wrap;html=1;" vertex="1" parent="1">
                    <mxGeometry x="230" y="240" width="140" height="110" as="geometry"/>
                </mxCell>
                <mxCell id="50" style="edgeStyle=none;html=1;" edge="1" parent="39" source="40">
                    <mxGeometry relative="1" as="geometry">
                        <mxPoint x="130" y="-110" as="targetPoint"/>
                    </mxGeometry>
                </mxCell>
                <mxCell id="40" value="__proto__" style="text;strokeColor=none;fillColor=none;align=left;verticalAlign=middle;spacingLeft=4;spacingRight=4;overflow=hidden;points=[[0,0.5],[1,0.5]];portConstraint=eastwest;rotatable=0;whiteSpace=wrap;html=1;" vertex="1" parent="39">
                    <mxGeometry y="50" width="140" height="30" as="geometry"/>
                </mxCell>
                <mxCell id="43" value="colors&amp;nbsp; &amp;nbsp; &amp;nbsp; &amp;nbsp; &amp;nbsp; &amp;nbsp; 0x100" style="text;strokeColor=none;fillColor=none;align=left;verticalAlign=middle;spacingLeft=4;spacingRight=4;overflow=hidden;points=[[0,0.5],[1,0.5]];portConstraint=eastwest;rotatable=0;whiteSpace=wrap;html=1;" vertex="1" parent="39">
                    <mxGeometry y="80" width="140" height="30" as="geometry"/>
                </mxCell>
                <mxCell id="44" value="堆内存" style="rounded=0;whiteSpace=wrap;html=1;fillColor=#f5f5f5;fontColor=#333333;strokeColor=#666666;" vertex="1" parent="1">
                    <mxGeometry x="430" y="240" width="120" height="200" as="geometry"/>
                </mxCell>
                <mxCell id="45" value="black|white" style="rounded=0;whiteSpace=wrap;html=1;" vertex="1" parent="1">
                    <mxGeometry x="440" y="380" width="70" height="30" as="geometry"/>
                </mxCell>
                <mxCell id="48" value="0x100" style="text;html=1;align=center;verticalAlign=middle;whiteSpace=wrap;rounded=0;" vertex="1" parent="1">
                    <mxGeometry x="440" y="370" width="36" height="10" as="geometry"/>
                </mxCell>
                <mxCell id="49" style="edgeStyle=none;html=1;exitX=1;exitY=0.5;exitDx=0;exitDy=0;entryX=0;entryY=0.75;entryDx=0;entryDy=0;" edge="1" parent="1" source="43" target="45">
                    <mxGeometry relative="1" as="geometry"/>
                </mxCell>
                <mxCell id="51" style="edgeStyle=none;html=1;entryX=0;entryY=0.5;entryDx=0;entryDy=0;" edge="1" parent="1" source="33" target="39">
                    <mxGeometry relative="1" as="geometry"/>
                </mxCell>
                <mxCell id="53" value="dog1" style="swimlane;fontStyle=0;childLayout=stackLayout;horizontal=1;startSize=30;horizontalStack=0;resizeParent=1;resizeParentMax=0;resizeLast=0;collapsible=1;marginBottom=0;whiteSpace=wrap;html=1;" vertex="1" parent="1">
                    <mxGeometry x="40" y="380" width="140" height="60" as="geometry"/>
                </mxCell>
                <mxCell id="54" value="__proto__" style="text;strokeColor=none;fillColor=none;align=left;verticalAlign=middle;spacingLeft=4;spacingRight=4;overflow=hidden;points=[[0,0.5],[1,0.5]];portConstraint=eastwest;rotatable=0;whiteSpace=wrap;html=1;" vertex="1" parent="53">
                    <mxGeometry y="30" width="140" height="30" as="geometry"/>
                </mxCell>
                <mxCell id="57" style="edgeStyle=none;html=1;exitX=1;exitY=0.5;exitDx=0;exitDy=0;entryX=-0.014;entryY=0.1;entryDx=0;entryDy=0;entryPerimeter=0;" edge="1" parent="1" source="54" target="40">
                    <mxGeometry relative="1" as="geometry"/>
                </mxCell>
                <mxCell id="59" value="dog2" style="swimlane;fontStyle=0;childLayout=stackLayout;horizontal=1;startSize=30;horizontalStack=0;resizeParent=1;resizeParentMax=0;resizeLast=0;collapsible=1;marginBottom=0;whiteSpace=wrap;html=1;" vertex="1" parent="1">
                    <mxGeometry x="50" y="470" width="140" height="60" as="geometry"/>
                </mxCell>
                <mxCell id="63" style="edgeStyle=none;html=1;exitX=1;exitY=0.5;exitDx=0;exitDy=0;" edge="1" parent="59" source="60">
                    <mxGeometry relative="1" as="geometry">
                        <mxPoint x="180" y="-180" as="targetPoint"/>
                    </mxGeometry>
                </mxCell>
                <mxCell id="60" value="__proto__" style="text;strokeColor=none;fillColor=none;align=left;verticalAlign=middle;spacingLeft=4;spacingRight=4;overflow=hidden;points=[[0,0.5],[1,0.5]];portConstraint=eastwest;rotatable=0;whiteSpace=wrap;html=1;" vertex="1" parent="59">
                    <mxGeometry y="30" width="140" height="30" as="geometry"/>
                </mxCell>
                <mxCell id="67" value="&lt;span style=&quot;color: rgb(191, 199, 213); font-family: Consolas, &amp;quot;Courier New&amp;quot;, monospace; font-size: 19.6px; white-space: pre;&quot;&gt;dog1&lt;/span&gt;&lt;span style=&quot;font-family: Consolas, &amp;quot;Courier New&amp;quot;, monospace; font-size: 19.6px; white-space: pre; color: rgb(199, 146, 234);&quot;&gt;.&lt;/span&gt;&lt;span style=&quot;font-family: Consolas, &amp;quot;Courier New&amp;quot;, monospace; font-size: 19.6px; white-space: pre; color: rgb(137, 221, 255);&quot;&gt;colors&lt;/span&gt;&lt;span style=&quot;font-family: Consolas, &amp;quot;Courier New&amp;quot;, monospace; font-size: 19.6px; white-space: pre; color: rgb(199, 146, 234);&quot;&gt;.&lt;/span&gt;&lt;span style=&quot;font-family: Consolas, &amp;quot;Courier New&amp;quot;, monospace; font-size: 19.6px; white-space: pre; color: rgb(130, 170, 255);&quot;&gt;push&lt;/span&gt;&lt;span style=&quot;color: rgb(191, 199, 213); font-family: Consolas, &amp;quot;Courier New&amp;quot;, monospace; font-size: 19.6px; white-space: pre;&quot;&gt;(&lt;/span&gt;&lt;span style=&quot;font-family: Consolas, &amp;quot;Courier New&amp;quot;, monospace; font-size: 19.6px; white-space: pre; color: rgb(217, 245, 221);&quot;&gt;&#39;&lt;/span&gt;&lt;span style=&quot;font-family: Consolas, &amp;quot;Courier New&amp;quot;, monospace; font-size: 19.6px; white-space: pre; color: rgb(195, 232, 141); font-style: italic;&quot;&gt;brown&lt;/span&gt;&lt;span style=&quot;font-family: Consolas, &amp;quot;Courier New&amp;quot;, monospace; font-size: 19.6px; white-space: pre; color: rgb(217, 245, 221);&quot;&gt;&#39;&lt;/span&gt;&lt;span style=&quot;color: rgb(191, 199, 213); font-family: Consolas, &amp;quot;Courier New&amp;quot;, monospace; font-size: 19.6px; white-space: pre;&quot;&gt;);&lt;/span&gt;&lt;div&gt;&lt;font face=&quot;Consolas, Courier New, monospace&quot; color=&quot;#bfc7d5&quot;&gt;&lt;span style=&quot;font-size: 19.6px; white-space: pre;&quot;&gt;执行时，dog1沿着原型链查找colors是new Animal()&lt;/span&gt;&lt;/font&gt;&lt;/div&gt;&lt;div&gt;&lt;font face=&quot;Consolas, Courier New, monospace&quot; color=&quot;#bfc7d5&quot;&gt;&lt;span style=&quot;font-size: 19.6px; white-space: pre;&quot;&gt;的colors属性，因此其引用类型colors被所有实例&lt;/span&gt;&lt;/font&gt;&lt;/div&gt;&lt;div&gt;&lt;font face=&quot;Consolas, Courier New, monospace&quot; color=&quot;#bfc7d5&quot;&gt;&lt;span style=&quot;font-size: 19.6px; white-space: pre;&quot;&gt;共享，如图也可以看出正常来讲&lt;/span&gt;&lt;/font&gt;&lt;/div&gt;&lt;div&gt;&lt;font face=&quot;Consolas, Courier New, monospace&quot; color=&quot;#bfc7d5&quot;&gt;&lt;span style=&quot;font-size: 19.6px; white-space: pre;&quot;&gt;function Animal中定义的所有属性都可以&lt;/span&gt;&lt;/font&gt;&lt;/div&gt;&lt;div&gt;&lt;font face=&quot;Consolas, Courier New, monospace&quot; color=&quot;#bfc7d5&quot;&gt;&lt;span style=&quot;font-size: 19.6px; white-space: pre;&quot;&gt;被实例共享，但是由于基本数据类型的属性&lt;/span&gt;&lt;/font&gt;&lt;/div&gt;&lt;div&gt;&lt;font face=&quot;Consolas, Courier New, monospace&quot; color=&quot;#bfc7d5&quot;&gt;&lt;span style=&quot;font-size: 19.6px; white-space: pre;&quot;&gt;可以通过点运算符创建因此会创建新的实例的&lt;/span&gt;&lt;/font&gt;&lt;/div&gt;&lt;div&gt;&lt;font face=&quot;Consolas, Courier New, monospace&quot; color=&quot;#bfc7d5&quot;&gt;&lt;span style=&quot;font-size: 19.6px; white-space: pre;&quot;&gt;属性，举例如下：&lt;/span&gt;&lt;/font&gt;&lt;/div&gt;&lt;div&gt;&lt;font face=&quot;Consolas, Courier New, monospace&quot; color=&quot;#bfc7d5&quot;&gt;&lt;div style=&quot;color: rgb(191, 199, 213); background-color: rgb(41, 45, 62); font-size: 19.6px; line-height: 26px; white-space: pre;&quot;&gt;&lt;div&gt;&lt;span style=&quot;color: rgb(199, 146, 234); font-style: italic;&quot;&gt;function&lt;/span&gt;&lt;span style=&quot;color: rgb(191, 199, 213);&quot;&gt; &lt;/span&gt;&lt;span style=&quot;color: rgb(130, 170, 255);&quot;&gt;Animal&lt;/span&gt;&lt;span style=&quot;color: rgb(217, 245, 221);&quot;&gt;()&lt;/span&gt;&lt;span style=&quot;color: rgb(191, 199, 213);&quot;&gt;{&lt;/span&gt;&lt;/div&gt;&lt;div&gt;&lt;span style=&quot;color: rgb(191, 199, 213);&quot;&gt;&amp;nbsp; &amp;nbsp; &lt;/span&gt;&lt;span style=&quot;color: rgb(255, 85, 114); font-style: italic;&quot;&gt;this&lt;/span&gt;&lt;span style=&quot;color: rgb(199, 146, 234);&quot;&gt;.&lt;/span&gt;&lt;span style=&quot;color: rgb(137, 221, 255);&quot;&gt;colors&lt;/span&gt;&lt;span style=&quot;color: rgb(191, 199, 213);&quot;&gt; &lt;/span&gt;&lt;span style=&quot;color: rgb(199, 146, 234);&quot;&gt;=&lt;/span&gt;&lt;span style=&quot;color: rgb(191, 199, 213);&quot;&gt;[&lt;/span&gt;&lt;span style=&quot;color: rgb(217, 245, 221);&quot;&gt;&#39;&lt;/span&gt;&lt;span style=&quot;color: rgb(195, 232, 141); font-style: italic;&quot;&gt;black&lt;/span&gt;&lt;span style=&quot;color: rgb(217, 245, 221);&quot;&gt;&#39;&lt;/span&gt;&lt;span style=&quot;color: rgb(238, 255, 255);&quot;&gt;,&lt;/span&gt;&lt;span style=&quot;color: rgb(217, 245, 221);&quot;&gt;&#39;&lt;/span&gt;&lt;span style=&quot;color: rgb(195, 232, 141); font-style: italic;&quot;&gt;white&lt;/span&gt;&lt;span style=&quot;color: rgb(217, 245, 221);&quot;&gt;&#39;&lt;/span&gt;&lt;span style=&quot;color: rgb(191, 199, 213);&quot;&gt;];&lt;/span&gt;&lt;/div&gt;&lt;div&gt;&lt;span style=&quot;color: rgb(191, 199, 213);&quot;&gt;&amp;nbsp; &amp;nbsp; &lt;/span&gt;&lt;span style=&quot;color: rgb(255, 85, 114); font-style: italic;&quot;&gt;this&lt;/span&gt;&lt;span style=&quot;color: rgb(199, 146, 234);&quot;&gt;.&lt;/span&gt;&lt;span style=&quot;color: rgb(137, 221, 255);&quot;&gt;name&lt;/span&gt;&lt;span style=&quot;color: rgb(199, 146, 234);&quot;&gt;=&lt;/span&gt;&lt;span style=&quot;color: rgb(217, 245, 221);&quot;&gt;&quot;&lt;/span&gt;&lt;span style=&quot;color: rgb(195, 232, 141); font-style: italic;&quot;&gt;aaa&lt;/span&gt;&lt;span style=&quot;color: rgb(217, 245, 221);&quot;&gt;&quot;&lt;/span&gt;&lt;span style=&quot;color: rgb(191, 199, 213);&quot;&gt;;&lt;/span&gt;&lt;/div&gt;&lt;div&gt;&lt;span style=&quot;color: rgb(191, 199, 213);&quot;&gt;}&lt;/span&gt;&lt;/div&gt;&lt;div&gt;&lt;span style=&quot;color: rgb(191, 199, 213);&quot;&gt;dog1&lt;span style=&quot;color: rgb(199, 146, 234);&quot;&gt;.&lt;/span&gt;&lt;span style=&quot;color: rgb(137, 221, 255);&quot;&gt;name&lt;/span&gt; &lt;span style=&quot;color: rgb(199, 146, 234);&quot;&gt;=&lt;/span&gt; &lt;span style=&quot;color: rgb(217, 245, 221);&quot;&gt;&quot;&lt;/span&gt;&lt;span style=&quot;color: rgb(195, 232, 141); font-style: italic;&quot;&gt;jet&lt;/span&gt;&lt;span style=&quot;color: rgb(217, 245, 221);&quot;&gt;&quot;&lt;/span&gt;&lt;/span&gt;&lt;/div&gt;&lt;div&gt;&lt;div style=&quot;color: rgb(191, 199, 213); font-size: 19.6px; line-height: 26px;&quot;&gt;&lt;span style=&quot;color: #bfc7d5;&quot;&gt;console&lt;/span&gt;&lt;span style=&quot;color: #c792ea;&quot;&gt;.&lt;/span&gt;&lt;span style=&quot;color: #82aaff;&quot;&gt;log&lt;/span&gt;&lt;span style=&quot;color: #bfc7d5;&quot;&gt;(dog2&lt;/span&gt;&lt;span style=&quot;color: #c792ea;&quot;&gt;.&lt;/span&gt;&lt;span style=&quot;color: #89ddff;&quot;&gt;name&lt;/span&gt;&lt;span style=&quot;color: #bfc7d5;&quot;&gt;);&lt;/span&gt;&lt;/div&gt;&lt;/div&gt;&lt;div style=&quot;color: rgb(191, 199, 213); font-size: 19.6px; line-height: 26px;&quot;&gt;最终打印的还是aaa，是由于dog2内并没有name属性会&lt;/div&gt;&lt;div style=&quot;color: rgb(191, 199, 213); font-size: 19.6px; line-height: 26px;&quot;&gt;沿着原型链查找，而dog1通过dog1.name=&quot;jet&quot;为自己&lt;/div&gt;&lt;div style=&quot;color: rgb(191, 199, 213); font-size: 19.6px; line-height: 26px;&quot;&gt;创建了一个属性而不是改变原型对象的属性&lt;/div&gt;&lt;/div&gt;&lt;/font&gt;&lt;/div&gt;" style="text;html=1;align=left;verticalAlign=middle;whiteSpace=wrap;rounded=0;" vertex="1" parent="1">
                    <mxGeometry x="200" y="710" width="60" height="30" as="geometry"/>
                </mxCell>
            </root>
        </mxGraphModel>
    </diagram>
</mxfile>